# xmcd
#
# Track frame offsets:
#	150
#	15742
#	31442
#	46447
#	62055
#	77069
#	94749
#	109797
#	126875
#	143246
#
# Disc length: 2145 seconds
#
# Revision: 3
# Processed by: cddbd v1.5.2PL0 Copyright (c) Steve Scherf et al.
# Submitted via: EasyCDDAExtractor 9.1.3.1
#
DISCID=84085f0a
DTITLE=Dolly Parton - Real Love
DYEAR=1985
DGENRE=Country
TTITLE0=Think About Love
TTITLE1=Tie Our Love (In A Double Knot)
TTITLE2=We Got Too Much
TTITLE3=It's Such A Heartache
TTITLE4=Don't Call It Love
TTITLE5=Real Love (Duet With Kenny Rogers)
TTITLE6=I Can't Be True
TTITLE7=Once In A Very Blue Moon
TTITLE8=Come Back To Me
TTITLE9=I Hope You're Never Happy
EXTD=
EXTT0=
EXTT1=
EXTT2=
EXTT3=
EXTT4=
EXTT5=Duet with Kenny Rogers\n
EXTT6=
EXTT7=
EXTT8=
EXTT9=
PLAYORDER=
